# xmcd
#
# Track frame offsets:
#  150
#  18525
#  31050
#  45900
#  58650
#  70500
#  84525
#  100050
#  116325
#  127725
#  141300
#
# Disc length: 2014 seconds
#
# Revision: 2
# Processed by: cddbd v1.5.1PL2 Copyright (c) Steve Scherf et al.
# Submitted via: Collectorz.com_Music_Collector 6.9
#
DISCID=8107dc0b
DTITLE=Various Artist - Truck Drivin' Superhits
DYEAR=1999
DGENRE=Country
TTITLE0=Boxcar Willie - Convoy
TTITLE1=Johnny Paycheck - Take This Job And Shove It
TTITLE2=Jeannie C. Riley - Harper Valley P. T. A.
TTITLE3=Freddy Fender - Wasted Days And Wasted Nights
TTITLE4=Kenny Rogers - Elvira
TTITLE5=Barbara Fairchild - Teddy Bear Song
TTITLE6=Boxcar Willie - Phantom 309
TTITLE7=Ferlin Husky - Truck Driver's Blues
TTITLE8=Kitty Wells - Heartbreak U. S. A.
TTITLE9=Jimmy Dean - Big Bad John
TTITLE10=Dave Dudley - Truck Drivin' Son-Of-A-Gun
EXTD=
EXTT0=
EXTT1=
EXTT2=
EXTT3=
EXTT4=
EXTT5=
EXTT6=
EXTT7=
EXTT8=
EXTT9=
EXTT10=
PLAYORDER=
